<svg width="18" height="19" viewBox="0 0 18 19" fill="none" xmlns="http://www.w3.org/2000/svg">
<path d="M17.9953 0.618637C17.9953 0.355604 17.7393 0.142857 17.4228 0.142857H3.53297C1.58262 0.142857 0 1.46189 0 3.07877V16.0641C0 17.6848 1.58728 19 3.53297 19H17.4275C17.744 19 18 18.7873 18 18.5242V5.54277C18 5.27974 17.744 5.06699 17.4275 5.06699H3.53297C2.21567 5.06699 1.14042 4.17345 1.14042 3.07877C1.14042 1.98409 2.21567 1.09055 3.53297 1.09055H17.4275C17.7393 1.09055 17.9953 0.877802 17.9953 0.618637ZM3.53297 6.01468H16.8549V18.0523H3.53297C2.21567 18.0523 1.14042 17.1588 1.14042 16.0641V5.23719C1.76881 5.7207 2.61133 6.01468 3.53297 6.01468Z" fill="black"/>
<path d="M3.72854 2.64941C3.41202 2.64941 3.15601 2.86215 3.15601 3.12519C3.15601 3.38822 3.41202 3.60097 3.72854 3.60097H16.7666C17.0831 3.60097 17.3391 3.38822 17.3391 3.12519C17.3391 2.86215 17.0831 2.64941 16.7666 2.64941H3.72854Z" fill="black"/>
<path d="M5.93953 15.5264C6.23278 15.6193 6.56327 15.4993 6.67499 15.2518L7.50819 13.4415H10.4267C10.45 13.4415 10.4686 13.4376 10.4872 13.4376L11.3204 15.2518C11.4089 15.4413 11.623 15.5574 11.8511 15.5574C11.9209 15.5574 11.9861 15.5458 12.0559 15.5264C12.3492 15.4336 12.4981 15.159 12.3864 14.9153L9.87281 9.45346C9.73317 9.14787 9.38872 8.9506 8.99772 8.9506C8.60672 8.9506 8.26226 9.14787 8.12262 9.45346L5.60904 14.9153C5.49733 15.159 5.64628 15.4297 5.93953 15.5264ZM8.99772 10.2L10.0543 12.4938H7.94574L8.99772 10.2Z" fill="black"/>
</svg>
