<svg width="21" height="21" viewBox="0 0 21 21" fill="none" xmlns="http://www.w3.org/2000/svg">
<path d="M10.5 0C4.71023 0 0 4.71023 0 10.5C0 16.2898 4.71023 21 10.5 21C16.2898 21 21 16.2898 21 10.5C21 4.71023 16.2898 0 10.5 0ZM10.5 20.16C5.1733 20.16 0.839986 15.8267 0.839986 10.5C0.839986 5.17326 5.1733 0.839986 10.5 0.839986C15.8267 0.839986 20.16 5.1733 20.16 10.5C20.16 15.8267 15.8267 20.16 10.5 20.16Z" fill="black"/>
<path d="M5.15047 16.0949L5.24319 16.1876L5.33581 16.0948L10.4886 10.9298L15.6413 16.0948L15.7339 16.1876L15.8266 16.0949L16.0697 15.8518L16.1622 15.7593L16.0698 15.6667L10.9163 10.5011L16.0698 5.33525L16.1623 5.24257L16.0697 5.15007L15.8266 4.90732L15.7338 4.81472L15.6413 4.90749L10.4886 10.0723L5.33581 4.90749L5.24326 4.81472L5.15053 4.90732L4.90745 5.15007L4.81481 5.24257L4.90727 5.33525L10.0608 10.5011L4.90727 15.6667L4.81488 15.7593L4.90738 15.8518L5.15047 16.0949Z" fill="black" stroke="black" stroke-width="0.261959"/>
</svg>
