<svg width="21" height="16" viewBox="0 0 21 16" fill="none" xmlns="http://www.w3.org/2000/svg">
<path d="M7.79178 7.25291H6.36534V5.34877C6.36534 5.10172 6.21535 4.90144 6.03023 4.90144H4.42172C4.23661 4.90144 4.08662 5.10172 4.08662 5.34877V7.25291H2.66018C2.47507 7.25291 2.32507 7.4532 2.32507 7.70024V9.84743C2.32507 10.0945 2.47507 10.2948 2.66018 10.2948H4.08662V12.1989C4.08662 12.446 4.23661 12.6462 4.42172 12.6462H6.03023C6.21535 12.6462 6.36534 12.446 6.36534 12.1989V10.2948H7.79178C7.97689 10.2948 8.12688 10.0945 8.12688 9.84743V7.70024C8.12688 7.4532 7.97684 7.25291 7.79178 7.25291ZM7.45667 9.4001H6.03023C5.84512 9.4001 5.69513 9.60039 5.69513 9.84743V11.7516H4.75683V9.84743C4.75683 9.60039 4.60684 9.4001 4.42172 9.4001H2.99529V8.14757H4.42172C4.60684 8.14757 4.75683 7.94729 4.75683 7.70024V5.7961H5.69513V7.70024C5.69513 7.94729 5.84512 8.14757 6.03023 8.14757H7.45667V9.4001Z" fill="black"/>
<path d="M11.4037 7.25291H9.59658C9.41147 7.25291 9.26147 7.4532 9.26147 7.70024C9.26147 7.94729 9.41147 8.14757 9.59658 8.14757H11.4037C11.5888 8.14757 11.7388 7.94729 11.7388 7.70024C11.7388 7.4532 11.5888 7.25291 11.4037 7.25291Z" fill="black"/>
<path fill-rule="evenodd" clip-rule="evenodd" d="M15.774 1.79768H11.9954V0.447331C11.9954 0.200285 11.8454 0 11.6603 0H10.8351H10.1649H9.33968C9.15457 0 9.00458 0.200285 9.00458 0.447331V1.79768H5.22601C2.3444 1.79768 0 4.92715 0 8.77384C0 12.6205 2.3444 15.75 5.22601 15.75C7.1425 15.75 8.87576 14.379 9.79833 12.1533H11.2017C12.1242 14.379 13.8575 15.75 15.774 15.75C18.6556 15.75 21 12.6205 21 8.77384C21 4.92721 18.6556 1.79768 15.774 1.79768ZM11.7029 11.5048C12.4825 13.5715 14.0425 14.8553 15.774 14.8553C18.2861 14.8553 20.3298 12.1272 20.3298 8.77384C20.3298 5.42046 18.2861 2.69234 15.774 2.69234H10.6801C10.495 2.69234 10.345 2.49205 10.345 2.24501C10.345 1.99796 10.495 1.79768 10.6801 1.79768H11.3252V0.894663H9.67479V2.24501C9.67479 2.49205 9.5248 2.69234 9.33968 2.69234H5.22601C2.71391 2.69234 0.670213 5.42052 0.670213 8.77384C0.670213 12.1272 2.71391 14.8553 5.22605 14.8553C6.95757 14.8553 8.51751 13.5714 9.29719 11.5048C9.35407 11.3539 9.46988 11.2587 9.59646 11.2587H11.4036C11.5302 11.2587 11.646 11.3539 11.7029 11.5048Z" fill="black"/>
<path d="M15.774 7.58543C16.3283 7.58543 16.7793 6.98344 16.7793 6.24343C16.7793 5.50343 16.3283 4.90144 15.774 4.90144C15.2197 4.90144 14.7687 5.50343 14.7687 6.24343C14.7687 6.98344 15.2197 7.58543 15.774 7.58543ZM15.774 5.7961C15.9588 5.7961 16.1091 5.99675 16.1091 6.24343C16.1091 6.49012 15.9588 6.69076 15.774 6.69076C15.5892 6.69076 15.4389 6.49012 15.4389 6.24343C15.4389 5.99675 15.5892 5.7961 15.774 5.7961Z" fill="black"/>
<path d="M13.8784 7.43185C13.3241 7.43185 12.873 8.03384 12.873 8.77384C12.873 9.51385 13.3241 10.1158 13.8784 10.1158C14.4327 10.1158 14.8837 9.51385 14.8837 8.77384C14.8837 8.03384 14.4327 7.43185 13.8784 7.43185ZM13.8784 9.22117C13.6936 9.22117 13.5433 9.02053 13.5433 8.77384C13.5433 8.52715 13.6936 8.32651 13.8784 8.32651C14.0632 8.32651 14.2135 8.52715 14.2135 8.77384C14.2135 9.02053 14.0632 9.22117 13.8784 9.22117Z" fill="black"/>
<path d="M15.774 9.96231C15.2197 9.96231 14.7687 10.5643 14.7687 11.3043C14.7687 12.0443 15.2197 12.6463 15.774 12.6463C16.3283 12.6463 16.7793 12.0443 16.7793 11.3043C16.7793 10.5643 16.3283 9.96231 15.774 9.96231ZM15.774 11.7516C15.5892 11.7516 15.4389 11.551 15.4389 11.3043C15.4389 11.0576 15.5892 10.857 15.774 10.857C15.9588 10.857 16.1091 11.0576 16.1091 11.3043C16.1091 11.551 15.9588 11.7516 15.774 11.7516Z" fill="black"/>
<path d="M17.6695 7.43185C17.1152 7.43185 16.6642 8.03384 16.6642 8.77384C16.6642 9.51385 17.1152 10.1158 17.6695 10.1158C18.2238 10.1158 18.6748 9.51385 18.6748 8.77384C18.6748 8.03384 18.2238 7.43185 17.6695 7.43185ZM17.6695 9.22117C17.4847 9.22117 17.3344 9.02053 17.3344 8.77384C17.3344 8.52715 17.4847 8.32651 17.6695 8.32651C17.8543 8.32651 18.0046 8.52715 18.0046 8.77384C18.0046 9.02053 17.8543 9.22117 17.6695 9.22117Z" fill="black"/>
</svg>
