<svg width="21" height="21" viewBox="0 0 21 21" fill="none" xmlns="http://www.w3.org/2000/svg">
<path d="M19.8024 15.884C19.3592 15.5725 18.8468 15.4068 18.3299 15.3832C16.4393 14.1445 15.1973 13.2121 14.4693 12.4851L12.4714 10.4897L14.4693 8.52546C15.7675 7.22897 16.9955 6.31789 18.3639 5.61706C18.3696 5.61513 18.3748 5.61226 18.3803 5.60996C19.0514 5.56569 19.7047 5.29106 20.1533 4.81111C20.7498 4.2154 21.0304 3.37443 20.9603 2.53345C20.9603 2.42832 20.8901 2.3232 20.7848 2.25311C20.6796 2.18301 20.5392 2.18301 20.434 2.25311L18.7148 3.2693C18.2587 3.05906 17.978 2.60354 18.013 2.07793L19.6972 1.0968C19.8024 1.06177 19.8726 0.921584 19.8726 0.816462C19.8726 0.676312 19.8024 0.57119 19.6972 0.501095C18.4341 -0.339884 16.7499 0.0105098 15.8728 1.23695C15.5643 1.67481 15.3989 2.18026 15.3724 2.69068C14.6719 4.01592 13.7622 5.27205 12.5045 6.5281L10.5046 8.52542L8.50472 6.5281C7.20979 5.23485 6.29898 4.01128 5.59798 2.64884C5.56118 1.95942 5.28418 1.3144 4.7856 0.816462C4.18912 0.220796 3.34706 -0.0595444 2.50499 0.0105509C2.39973 0.045578 2.29447 0.115673 2.2594 0.185769C2.18922 0.290891 2.18922 0.43104 2.2594 0.536163L3.2418 2.28822C3.03128 2.74373 2.54006 3.02407 2.04889 2.98905L1.03137 1.30705C0.996302 1.20192 0.85593 1.13183 0.750672 1.13183C0.645414 1.0968 0.540155 1.16686 0.46997 1.27198C-0.372097 2.53345 -0.0563221 4.2154 1.20678 5.09141C1.64196 5.40185 2.13223 5.57448 2.62875 5.60988C2.6343 5.61222 2.63952 5.61509 2.64528 5.61702C4.01364 6.31785 5.24167 7.22889 6.50477 8.45533L8.50468 10.4527L6.50477 12.45C5.76808 13.1857 4.47016 14.1316 2.57592 15.3929C1.91567 15.446 1.30019 15.7206 0.820817 16.1994C0.22438 16.7951 -0.0563222 17.6361 0.0138638 18.4771C0.0138638 18.5822 0.0840497 18.6873 0.189308 18.7574C0.294566 18.8275 0.434897 18.8275 0.540155 18.7574L2.25936 17.7412C2.71547 17.9865 2.99617 18.442 2.9611 18.9676L1.27696 19.9488C1.17171 19.9838 1.10152 20.0889 1.10152 20.2291C1.10152 20.3693 1.17171 20.4744 1.27696 20.5445C1.76818 20.8598 2.29447 21 2.82077 21C3.69791 21 4.53997 20.5795 5.10138 19.7736C5.43187 19.3045 5.59831 18.7579 5.60538 18.2107C6.82704 16.3546 7.74912 15.132 8.46964 14.4123L10.4696 12.415L12.4695 14.4123C12.7292 14.6718 13.0153 15.0012 13.332 15.4015C13.3493 15.449 13.3773 15.4941 13.4168 15.5336C13.4352 15.552 13.4537 15.5679 13.4728 15.5815C13.6931 15.8662 13.9279 16.1839 14.1783 16.5345C14.1958 16.5777 14.2225 16.6187 14.2589 16.6549C14.264 16.66 14.2691 16.6646 14.2743 16.6693C14.6223 17.1602 15 17.7127 15.4114 18.3289C15.4487 19.0175 15.7256 19.6616 16.2237 20.159C16.75 20.6846 17.4517 20.9649 18.1885 20.9649C18.2938 20.9649 18.399 20.9649 18.4692 20.9649C18.5745 20.9649 18.6797 20.8948 18.7499 20.7897C18.8201 20.6846 18.8201 20.5444 18.7499 20.4393L17.7323 18.7223C17.9779 18.2668 18.4341 17.9865 18.9604 18.0215L19.9428 19.7035C19.9778 19.8086 20.1182 19.8787 20.2235 19.8787C20.3638 19.8437 20.4691 19.8086 20.5392 19.7035C21.3813 18.442 21.0305 16.76 19.8024 15.884ZM4.53997 19.3881C4.01368 20.124 3.06636 20.4393 2.22429 20.194L3.48739 19.4582C3.59265 19.3881 3.66283 19.283 3.66283 19.1779V19.0026C3.73302 18.1967 3.27687 17.4608 2.57518 17.1104L2.39973 17.0403C2.29447 16.9702 2.18922 16.9702 2.08396 17.0403L0.750672 17.8113C0.820858 17.3908 1.03137 17.0053 1.34715 16.6899C1.80326 16.2695 2.39973 16.0242 3.03128 16.0942C3.56415 16.1534 4.04653 16.4126 4.3952 16.8078C4.44651 16.8703 4.49507 16.936 4.53997 17.0053C4.75049 17.3207 4.89082 17.7061 4.89082 18.1266C4.89082 18.1731 4.8981 18.2124 4.91179 18.2482C4.90118 18.6486 4.77882 19.0474 4.53997 19.3881ZM8.0135 13.9918C7.34823 14.6212 6.50822 15.7045 5.45864 17.276C5.38138 17.0467 5.2739 16.8258 5.13641 16.6199C4.77467 16.1038 4.27942 15.7214 3.70732 15.5273C3.97594 15.3484 4.25388 15.16 4.53286 14.9659L5.03115 15.4635C5.10134 15.5336 5.17148 15.5687 5.27674 15.5687C5.382 15.5687 5.48726 15.5336 5.52233 15.4635C5.66266 15.3234 5.66266 15.1131 5.52233 14.973L5.10697 14.5581C5.31148 14.4097 5.51345 14.2594 5.70949 14.1087L6.04862 14.4473C6.11881 14.5174 6.18895 14.5525 6.29421 14.5525C6.36439 14.5525 6.46965 14.5174 6.5398 14.4473C6.68013 14.3072 6.68013 14.0969 6.5398 13.9568L6.25581 13.6731C6.54111 13.4366 6.80401 13.2023 7.03102 12.9756L9.03093 11.0133L10.0133 11.9944L8.0135 13.9918ZM16.4692 1.62241C16.8903 1.02671 17.5218 0.711339 18.1884 0.711339C18.399 0.711339 18.6095 0.746366 18.7498 0.781435L17.4867 1.51729C17.3814 1.58739 17.3113 1.69251 17.3113 1.79763V1.97285C17.2762 2.7788 17.6972 3.51466 18.3989 3.86505L18.6094 3.97017C18.7147 4.04027 18.82 4.04027 18.9252 3.97017L20.2585 3.19925C20.1884 3.61974 19.9778 4.0052 19.6621 4.32057C19.2702 4.68184 18.7746 4.91315 18.2422 4.92683C18.2152 4.92005 18.1861 4.91623 18.1533 4.91623C17.9908 4.91623 17.8323 4.89665 17.6795 4.86035C17.1715 4.72816 16.7286 4.4112 16.4341 3.97009C15.9781 3.26934 15.9781 2.32324 16.4692 1.62241ZM12.9957 7.01872C14.0378 5.97797 14.8733 4.93705 15.5368 3.79426C15.6121 4.00216 15.7122 4.20272 15.8377 4.39066C16.1748 4.87156 16.6275 5.23686 17.1505 5.44148C16.0825 6.10178 15.0473 6.93212 13.9782 7.99985L11.9782 9.99718L11.487 9.50659L10.9958 9.01601L12.9957 7.01872ZM0.785745 2.21812L1.52255 3.47959C1.59274 3.58471 1.698 3.65481 1.80326 3.65481H1.9787C2.78565 3.68983 3.52246 3.26934 3.87335 2.56852L3.94354 2.3933C4.01372 2.28818 4.01372 2.18305 3.94354 2.07793L3.17161 0.746408C3.59265 0.816503 3.97861 1.02675 4.29438 1.34211C4.65613 1.73349 4.88774 2.22847 4.90143 2.76016C4.89464 2.78714 4.89082 2.81617 4.89082 2.8489C4.89082 3.01118 4.87121 3.16948 4.8349 3.32207C4.70255 3.82945 4.38517 4.27183 3.94349 4.56592C3.24176 5.02144 2.29443 5.02144 1.59274 4.53089C0.85593 4.0052 0.540155 3.0591 0.785745 2.21812ZM10.792 11.791C10.7745 11.751 10.749 11.713 10.7151 11.6791L9.24148 10.2074C9.20436 10.1703 9.1671 10.1434 9.12479 10.1259L7.03106 8.03488C5.97847 6.94863 4.92589 6.10765 3.80312 5.44185C3.97857 5.37175 4.18908 5.26663 4.32941 5.16151C4.73421 4.89201 5.03485 4.56005 5.24804 4.16617C5.31453 4.04918 5.37303 3.92796 5.42159 3.80231C6.08752 4.92067 6.92823 5.93481 8.0135 7.01868L10.2022 9.19176C10.2175 9.2157 10.2362 9.23857 10.259 9.26128L11.7326 10.733C11.7625 10.7628 11.7924 10.7858 11.825 10.803L14.0132 12.9756C14.6434 13.64 15.728 14.4789 17.3016 15.5271C17.072 15.6043 16.8508 15.7116 16.6446 15.849C16.1278 16.2103 15.7449 16.7049 15.5506 17.2763C15.3483 16.9801 15.1539 16.7009 14.9669 16.4382L15.4517 15.9541C15.592 15.8139 15.592 15.6037 15.4517 15.4635C15.3114 15.3233 15.1008 15.3233 14.9605 15.4635L14.5544 15.869C14.4085 15.6715 14.2675 15.4852 14.1316 15.3102L14.4692 14.973C14.6096 14.8328 14.6096 14.6226 14.4692 14.4824C14.3289 14.3422 14.1184 14.3422 13.978 14.4824L13.6943 14.7657C13.4425 14.4636 13.21 14.2058 12.9956 13.9918L10.792 11.791ZM20.1884 18.7574L19.4516 17.4959C19.3814 17.3908 19.2761 17.3207 19.1709 17.3207H18.9954C18.1884 17.2506 17.4516 17.7061 17.1008 18.4069L17.0306 18.5821C16.9604 18.6873 16.9604 18.7924 17.0306 18.8975L17.8025 20.2291C17.3814 20.159 16.9955 19.9487 16.6797 19.6334C16.3248 19.2494 16.0954 18.7657 16.0739 18.2455C16.0799 18.2199 16.0832 18.1924 16.0832 18.1617C16.0832 17.4608 16.4341 16.8301 17.0306 16.4447C17.3463 16.2344 17.7323 16.0943 18.1533 16.0943C18.2105 16.0943 18.2572 16.0836 18.2993 16.0629C18.6829 16.0851 19.0613 16.221 19.3814 16.4447C20.1182 16.9703 20.434 17.9164 20.1884 18.7574Z" fill="black"/>
</svg>
