<svg width="21" height="21" viewBox="0 0 21 21" fill="none" xmlns="http://www.w3.org/2000/svg">
<path d="M0.75 10.4978C0.75 10.8249 0.998598 11.0866 1.30935 11.0866H14.8207L11.9245 14.1352C11.7049 14.3664 11.7049 14.7371 11.9245 14.9682C12.0322 15.0816 12.1772 15.1427 12.3181 15.1427C12.459 15.1427 12.604 15.086 12.7117 14.9682L16.565 10.9122C16.7846 10.681 16.7846 10.3103 16.565 10.0791L12.7117 6.02307C12.4921 5.79191 12.1399 5.79191 11.9203 6.02307C11.7007 6.25422 11.7007 6.62493 11.9203 6.85609L14.8165 9.90469H1.30935C0.998598 9.90905 0.75 10.1707 0.75 10.4978Z" fill="white"/>
<path d="M16.594 0H4.85187C2.58963 0 0.75 1.93645 0.75 4.31776V6.85607C0.75 7.18318 0.998598 7.44486 1.30935 7.44486C1.62009 7.44486 1.86869 7.18318 1.86869 6.85607V4.31776C1.86869 2.58629 3.20698 1.17757 4.85187 1.17757H16.5981C18.243 1.17757 19.5813 2.58629 19.5813 4.31776V16.6822C19.5813 18.4137 18.243 19.8224 16.5981 19.8224H4.85187C3.20698 19.8224 1.86869 18.4137 1.86869 16.6822V14.1745C1.86869 13.8474 1.62009 13.5857 1.30935 13.5857C0.998598 13.5857 0.75 13.8474 0.75 14.1745V16.6822C0.75 19.0636 2.58963 21 4.85187 21H16.5981C18.8604 21 20.7 19.0636 20.7 16.6822V4.31776C20.6959 1.93645 18.8562 0 16.594 0Z" fill="white"/>
</svg>
